<svg width="580" height="149" viewBox="0 0 580 149" fill="none" xmlns="http://www.w3.org/2000/svg">
<path d="M15.1876 73.5318C15.1876 82.3959 17.0686 89.817 20.8307 95.7951C24.5928 101.773 30.6224 104.762 38.9196 104.762C45.3616 104.762 50.6439 102.005 54.7668 96.4908C58.9411 90.925 61.0283 82.9628 61.0283 72.6042C61.0283 62.1425 58.8896 54.4122 54.6122 49.4133C50.3347 44.3628 45.0523 41.8376 38.765 41.8376C31.7562 41.8376 26.0616 44.5174 21.681 49.8771C17.3521 55.2368 15.1876 63.1217 15.1876 73.5318ZM36.1367 29.701C42.4756 29.701 47.7837 31.0409 52.0612 33.7207C54.5348 35.2668 57.3435 37.9724 60.4872 41.8376V0.0166016H73.8606V113.961H61.3375V102.443C58.0908 107.545 54.2514 111.23 49.8194 113.498C45.3873 115.765 40.3111 116.899 34.5907 116.899C25.3658 116.899 17.3778 113.034 10.6267 105.303C3.87557 97.5215 0.5 87.1887 0.5 74.3048C0.5 62.2456 3.56636 51.8097 9.69907 42.9971C15.8833 34.133 24.6959 29.701 36.1367 29.701Z" fill="black"/>
<path d="M100.917 31.1697L116.841 96.4135L132.997 31.1697H148.613L164.846 96.027L181.776 31.1697H195.69L171.649 113.961H157.193L140.341 49.8771L124.03 113.961H109.575L85.688 31.1697H100.917Z" fill="black"/>
<path d="M207.827 0.0166016H221.355V41.2191C224.395 37.2509 228.029 34.2361 232.255 32.1747C236.481 30.0617 241.067 29.0053 246.015 29.0053C256.322 29.0053 264.67 32.5612 271.061 39.6731C277.503 46.7334 280.724 57.1693 280.724 70.9808C280.724 84.0708 277.554 94.9448 271.215 103.603C264.877 112.261 256.09 116.59 244.855 116.59C238.568 116.59 233.26 115.069 228.931 112.029C226.354 110.225 223.597 107.339 220.659 103.371V113.961H207.827V0.0166016ZM244.005 104.298C251.529 104.298 257.146 101.309 260.857 95.3313C264.619 89.3532 266.5 81.4683 266.5 71.6765C266.5 62.9671 264.619 55.7521 260.857 50.0317C257.146 44.3113 251.658 41.451 244.391 41.451C238.052 41.451 232.487 43.7959 227.694 48.4856C222.952 53.1753 220.582 60.9057 220.582 71.6765C220.582 79.4584 221.561 85.7715 223.519 90.6158C227.178 99.7376 234.007 104.298 244.005 104.298Z" fill="black"/>
<path d="M297.035 31.5563H311.181V113.961H297.035V31.5563ZM297.035 0.403117H311.181V16.1729H297.035V0.403117Z" fill="black"/>
<path d="M361.505 29.701C367.999 29.701 373.668 31.2986 378.512 34.4938C381.14 36.2975 383.82 38.9258 386.552 42.3787V31.9428H399.384V107.236C399.384 117.749 397.838 126.046 394.746 132.128C388.974 143.362 378.074 148.98 362.046 148.98C353.131 148.98 345.632 146.97 339.551 142.95C333.47 138.982 330.069 132.746 329.347 124.243H343.494C344.164 127.953 345.504 130.813 347.514 132.823C350.657 135.915 355.605 137.461 362.356 137.461C373.024 137.461 380.007 133.699 383.305 126.175C385.263 121.743 386.165 113.832 386.01 102.443C383.228 106.669 379.878 109.813 375.961 111.874C372.044 113.936 366.865 114.966 360.423 114.966C351.456 114.966 343.597 111.797 336.846 105.458C330.146 99.0676 326.796 88.5286 326.796 73.841C326.796 59.978 330.172 49.1556 336.923 41.3737C343.726 33.5919 351.92 29.701 361.505 29.701ZM386.552 72.2177C386.552 61.9621 384.439 54.3607 380.213 49.4133C375.987 44.4659 370.601 41.9922 364.056 41.9922C354.265 41.9922 347.565 46.5788 343.958 55.7521C342.051 60.648 341.097 67.0641 341.097 75.0006C341.097 84.3285 342.978 91.4404 346.74 96.3362C350.554 101.181 355.656 103.603 362.046 103.603C372.044 103.603 379.079 99.0934 383.15 90.0747C385.418 84.9727 386.552 79.0203 386.552 72.2177Z" fill="black"/>
<path d="M462.54 74.7687V24.599L427.058 74.7687H462.54ZM462.772 113.961V86.9052H414.226V73.2999L464.937 2.95412H476.687V74.7687H492.998V86.9052H476.687V113.961H462.772Z" fill="black"/>
<path d="M543.013 29.3145C548.888 29.3145 554.583 30.7059 560.097 33.4888C565.611 36.2202 569.811 39.7761 572.697 44.1567C575.48 48.331 577.336 53.2011 578.263 58.7669C579.088 62.5806 579.5 68.6617 579.5 77.0105H518.817C519.075 85.4107 521.059 92.1619 524.769 97.2639C528.48 102.314 534.226 104.84 542.008 104.84C549.275 104.84 555.072 102.443 559.401 97.6504C561.875 94.8675 563.627 91.6465 564.658 87.9875H578.34C577.98 91.0281 576.769 94.4294 574.707 98.1915C572.697 101.902 570.43 104.943 567.905 107.313C563.679 111.436 558.448 114.219 552.212 115.662C548.862 116.487 545.074 116.899 540.848 116.899C530.541 116.899 521.806 113.163 514.643 105.69C507.479 98.1657 503.898 87.6525 503.898 74.1502C503.898 60.8541 507.505 50.0575 514.72 41.7603C521.935 33.4631 531.366 29.3145 543.013 29.3145ZM565.199 65.9561C564.632 59.9265 563.318 55.1079 561.257 51.5004C557.443 44.8008 551.078 41.451 542.163 41.451C535.772 41.451 530.413 43.7701 526.084 48.4083C521.755 52.995 519.461 58.8442 519.204 65.9561H565.199Z" fill="black"/>
</svg>
